<mxfile host="app.diagrams.net" modified="2020-05-20T04:12:31.032Z" agent="5.0 (Windows NT 10.0; Win64; x64) AppleWebKit/537.36 (KHTML, like Gecko) Chrome/81.0.4044.138 Safari/537.36" etag="xeF8ZQQqO37ydd0PPXpg" version="13.1.3" type="github" pages="6">
  <diagram name="Landing page" id="03018318-947c-dd8e-b7a3-06fadd420f32">
    <mxGraphModel dx="1038" dy="548" grid="1" gridSize="10" guides="1" tooltips="1" connect="1" arrows="1" fold="1" page="1" pageScale="1" pageWidth="1100" pageHeight="850" background="#ffffff" math="0" shadow="0">
      <root>
        <mxCell id="0" />
        <mxCell id="1" parent="0" />
        <mxCell id="AQUX1lwgbm1XslL63LrI-114" style="edgeStyle=orthogonalEdgeStyle;rounded=0;orthogonalLoop=1;jettySize=auto;html=1;exitX=1;exitY=1;exitDx=0;exitDy=0;fontSize=45;fontColor=#000000;" parent="1" source="677b7b8949515195-1" edge="1">
          <mxGeometry relative="1" as="geometry">
            <mxPoint x="1110" y="1680" as="targetPoint" />
          </mxGeometry>
        </mxCell>
        <mxCell id="677b7b8949515195-1" value="" style="whiteSpace=wrap;html=1;rounded=0;shadow=0;labelBackgroundColor=none;strokeColor=#000000;strokeWidth=1;fillColor=none;fontFamily=Verdana;fontSize=12;fontColor=#000000;align=center;comic=1;fontStyle=0" parent="1" vertex="1">
          <mxGeometry x="20" y="20" width="1080" height="1660" as="geometry" />
        </mxCell>
        <mxCell id="677b7b8949515195-2" value="&lt;u&gt;LOGO&lt;/u&gt;" style="whiteSpace=wrap;html=1;rounded=0;shadow=0;labelBackgroundColor=none;strokeWidth=1;fontFamily=Verdana;fontSize=28;align=center;comic=1;" parent="1" vertex="1">
          <mxGeometry x="40" y="80" width="170" height="60" as="geometry" />
        </mxCell>
        <mxCell id="677b7b8949515195-3" value="Search" style="strokeWidth=1;shadow=0;dashed=0;align=center;html=1;shape=mxgraph.mockup.forms.searchBox;strokeColor=#999999;mainText=;strokeColor2=#008cff;fontColor=#666666;fontSize=17;align=left;spacingLeft=3;rounded=0;labelBackgroundColor=none;comic=1;" parent="1" vertex="1">
          <mxGeometry x="840" y="30" width="220" height="30" as="geometry" />
        </mxCell>
        <mxCell id="677b7b8949515195-8" value="" style="whiteSpace=wrap;html=1;rounded=0;shadow=0;labelBackgroundColor=none;strokeWidth=1;fillColor=none;fontFamily=Verdana;fontSize=12;align=center;comic=1;" parent="1" vertex="1">
          <mxGeometry x="830" y="1440" width="250" height="190" as="geometry" />
        </mxCell>
        <mxCell id="677b7b8949515195-9" value="" style="line;strokeWidth=1;html=1;rounded=0;shadow=0;labelBackgroundColor=none;fillColor=none;fontFamily=Verdana;fontSize=14;fontColor=#000000;align=center;comic=1;" parent="1" vertex="1">
          <mxGeometry x="20" y="180" width="1080" height="10" as="geometry" />
        </mxCell>
        <mxCell id="677b7b8949515195-10" value="" style="whiteSpace=wrap;html=1;rounded=0;shadow=0;labelBackgroundColor=none;strokeWidth=1;fillColor=none;fontFamily=Verdana;fontSize=12;align=center;comic=1;fontStyle=0" parent="1" vertex="1">
          <mxGeometry x="390" y="92.5" width="710" height="35" as="geometry" />
        </mxCell>
        <mxCell id="677b7b8949515195-11" value="About FSU" style="text;html=1;points=[];align=left;verticalAlign=top;spacingTop=-4;fontSize=14;fontFamily=Verdana" parent="1" vertex="1">
          <mxGeometry x="415" y="100" width="60" height="20" as="geometry" />
        </mxCell>
        <mxCell id="677b7b8949515195-12" value="Academics" style="text;html=1;points=[];align=left;verticalAlign=top;spacingTop=-4;fontSize=14;fontFamily=Verdana" parent="1" vertex="1">
          <mxGeometry x="530" y="100" width="60" height="20" as="geometry" />
        </mxCell>
        <mxCell id="677b7b8949515195-13" value="The FSU Difference" style="text;html=1;points=[];align=left;verticalAlign=top;spacingTop=-4;fontSize=14;fontFamily=Verdana" parent="1" vertex="1">
          <mxGeometry x="640" y="100" width="60" height="20" as="geometry" />
        </mxCell>
        <mxCell id="677b7b8949515195-14" value="Admissions and Aid" style="text;html=1;points=[];align=left;verticalAlign=top;spacingTop=-4;fontSize=14;fontFamily=Verdana" parent="1" vertex="1">
          <mxGeometry x="815" y="100" width="60" height="20" as="geometry" />
        </mxCell>
        <mxCell id="677b7b8949515195-15" value="&lt;div style=&quot;text-align: justify&quot;&gt;&lt;span&gt;Lorem ipsum dolor sit amet, consectetur adipisicing elit, sed do eiusmod tempor incididunt ut labore et dolore magna aliqua. Ut enim ad minim veniam, quis nostrud exercitation ullamco laboris nisi ut aliquip ex ea commodo consequat. Duis aute irure dolor in reprehenderit in voluptate velit esse cillum dolore eu fugiat nulla pariatur. Excepteur sint occaecat cupidatat non proident, sunt in culpa qui officia deserunt mollit anim id est laborum.&lt;/span&gt;&lt;/div&gt;&lt;div style=&quot;text-align: justify&quot;&gt;&lt;span&gt;Sed ut perspiciatis unde omnis iste natus error sit voluptatem accusantium doloremque laudantium, totam rem aperiam, eaque ipsa quae ab illo inventore veritatis et quasi architecto beatae vitae dicta sunt explicabo. Nemo enim ipsam voluptatem quia voluptas sit aspernatur aut odit aut fugit, sed quia consequuntur magni dolores eos qui ratione voluptatem sequi nesciunt.&amp;nbsp;&lt;/span&gt;&lt;/div&gt;" style="whiteSpace=wrap;html=1;rounded=0;shadow=0;labelBackgroundColor=none;strokeWidth=1;fillColor=none;fontFamily=Verdana;fontSize=12;align=center;verticalAlign=top;spacing=10;comic=1;" parent="1" vertex="1">
          <mxGeometry x="30" y="440" width="480" height="220" as="geometry" />
        </mxCell>
        <mxCell id="677b7b8949515195-26" value="" style="whiteSpace=wrap;html=1;rounded=0;shadow=0;labelBackgroundColor=none;strokeWidth=1;fillColor=none;fontFamily=Verdana;fontSize=12;align=center;comic=1;" parent="1" vertex="1">
          <mxGeometry x="500" y="1440" width="250" height="180" as="geometry" />
        </mxCell>
        <mxCell id="677b7b8949515195-35" value="Our Mission:&amp;nbsp;" style="text;html=1;points=[];align=left;verticalAlign=top;spacingTop=-4;fontSize=14;fontFamily=Verdana;fontStyle=5" parent="1" vertex="1">
          <mxGeometry x="30" y="405" width="110" height="20" as="geometry" />
        </mxCell>
        <mxCell id="677b7b8949515195-40" value="Social Media Feeds&lt;br&gt;FB and/or Twitter&amp;nbsp;" style="text;html=1;points=[];align=left;verticalAlign=top;spacingTop=-4;fontSize=14;fontFamily=Verdana" parent="1" vertex="1">
          <mxGeometry x="90" y="1180" width="140" height="20" as="geometry" />
        </mxCell>
        <mxCell id="677b7b8949515195-42" value="External Links" style="text;html=1;points=[];align=center;verticalAlign=top;spacingTop=-4;fontSize=14;fontFamily=Verdana" parent="1" vertex="1">
          <mxGeometry x="520" y="1460" width="170" height="20" as="geometry" />
        </mxCell>
        <mxCell id="AQUX1lwgbm1XslL63LrI-9" value="" style="verticalLabelPosition=bottom;shadow=0;dashed=0;align=center;html=1;verticalAlign=top;strokeWidth=1;shape=mxgraph.mockup.graphics.simpleIcon;strokeColor=#999999;rounded=0;labelBackgroundColor=none;fontFamily=Verdana;fontSize=14;fontColor=#000000;comic=1;" parent="1" vertex="1">
          <mxGeometry x="20" y="190" width="1080" height="210" as="geometry" />
        </mxCell>
        <mxCell id="AQUX1lwgbm1XslL63LrI-10" value="" style="verticalLabelPosition=bottom;shadow=0;dashed=0;align=center;html=1;verticalAlign=top;strokeWidth=1;shape=mxgraph.mockup.graphics.simpleIcon;strokeColor=#999999;rounded=0;labelBackgroundColor=none;fontFamily=Verdana;fontSize=14;fontColor=#000000;comic=1;" parent="1" vertex="1">
          <mxGeometry x="40" y="830" width="180" height="170" as="geometry" />
        </mxCell>
        <mxCell id="AQUX1lwgbm1XslL63LrI-12" value="" style="verticalLabelPosition=bottom;shadow=0;dashed=0;align=center;html=1;verticalAlign=top;strokeWidth=1;shape=mxgraph.mockup.graphics.simpleIcon;strokeColor=#999999;rounded=0;labelBackgroundColor=none;fontFamily=Verdana;fontSize=14;fontColor=#000000;comic=1;" parent="1" vertex="1">
          <mxGeometry x="325" y="830" width="180" height="170" as="geometry" />
        </mxCell>
        <mxCell id="AQUX1lwgbm1XslL63LrI-26" value="" style="line;strokeWidth=1;html=1;rounded=0;shadow=0;labelBackgroundColor=none;fillColor=none;fontFamily=Verdana;fontSize=14;fontColor=#000000;align=center;comic=1;" parent="1" vertex="1">
          <mxGeometry x="20" y="70" width="1080" height="10" as="geometry" />
        </mxCell>
        <mxCell id="AQUX1lwgbm1XslL63LrI-27" value="" style="line;strokeWidth=1;html=1;rounded=0;shadow=0;labelBackgroundColor=none;fillColor=none;fontFamily=Verdana;fontSize=14;fontColor=#000000;align=center;comic=1;" parent="1" vertex="1">
          <mxGeometry x="20" y="140" width="1080" height="10" as="geometry" />
        </mxCell>
        <mxCell id="AQUX1lwgbm1XslL63LrI-57" value="Layer 1" style="strokeWidth=1;shadow=0;dashed=0;align=center;html=1;shape=mxgraph.mockup.navigation.anchor;fontSize=17;fontColor=#666666;fontStyle=1;fillColor=#A9C4EB;opacity=50;" parent="1" vertex="1">
          <mxGeometry x="40" y="150" width="60" height="30" as="geometry" />
        </mxCell>
        <mxCell id="AQUX1lwgbm1XslL63LrI-58" value="&gt;" style="strokeWidth=1;shadow=0;dashed=0;align=center;html=1;shape=mxgraph.mockup.navigation.anchor;fontSize=24;fontColor=#aaaaaa;fontStyle=1;fillColor=#A9C4EB;opacity=50;" parent="1" vertex="1">
          <mxGeometry x="100" y="150" width="20" height="30" as="geometry" />
        </mxCell>
        <mxCell id="AQUX1lwgbm1XslL63LrI-63" value="Layer 4" style="strokeWidth=1;shadow=0;dashed=0;align=center;html=1;shape=mxgraph.mockup.navigation.anchor;fontSize=17;fontColor=#008cff;fontStyle=1;fillColor=#A9C4EB;opacity=50;" parent="1" vertex="1">
          <mxGeometry x="130" y="150" width="60" height="30" as="geometry" />
        </mxCell>
        <mxCell id="AQUX1lwgbm1XslL63LrI-66" value="" style="verticalLabelPosition=bottom;shadow=0;dashed=0;align=center;html=1;verticalAlign=top;strokeWidth=1;shape=mxgraph.mockup.graphics.simpleIcon;strokeColor=#999999;rounded=0;labelBackgroundColor=none;fontFamily=Verdana;fontSize=14;fontColor=#000000;comic=1;" parent="1" vertex="1">
          <mxGeometry x="575" y="440" width="190" height="170" as="geometry" />
        </mxCell>
        <mxCell id="AQUX1lwgbm1XslL63LrI-68" value="Veterans &amp;amp; Military Services&amp;nbsp;" style="text;html=1;strokeColor=none;fillColor=none;align=center;verticalAlign=bottom;whiteSpace=wrap;rounded=0;opacity=50;fontSize=45;labelBackgroundColor=#FFFDC9;spacing=0;" parent="1" vertex="1">
          <mxGeometry x="15" y="340" width="600" height="60" as="geometry" />
        </mxCell>
        <mxCell id="AQUX1lwgbm1XslL63LrI-78" value="" style="whiteSpace=wrap;html=1;rounded=0;shadow=0;labelBackgroundColor=none;strokeWidth=1;fillColor=none;fontFamily=Verdana;fontSize=12;align=center;comic=1;" parent="1" vertex="1">
          <mxGeometry x="40" y="1090" width="250" height="210" as="geometry" />
        </mxCell>
        <mxCell id="AQUX1lwgbm1XslL63LrI-81" value="&lt;div style=&quot;text-align: justify&quot;&gt;&lt;span&gt;Lorem ipsum dolor sit amet, consectetur adipisicing elit, sed do eiusmod tempor incididunt ut labore et dolore magna aliqua. Ut enim ad minim veniam, quis nostrud exercitation ullamco laboris nisi ut aliquip ex ea commodo consequat. Duis aute irure dolor in reprehenderit in voluptate velit esse cillum dolore eu fugiat nulla pariatur. Excepteur sint occaecat cupidatat non proident, sunt in culpa qui officia deserunt mollit anim id est laborum.&lt;/span&gt;&lt;/div&gt;&lt;div style=&quot;text-align: justify&quot;&gt;&lt;br&gt;&lt;/div&gt;" style="whiteSpace=wrap;html=1;rounded=0;shadow=0;labelBackgroundColor=none;strokeWidth=1;fillColor=none;fontFamily=Verdana;fontSize=12;align=center;verticalAlign=top;spacing=10;comic=1;" parent="1" vertex="1">
          <mxGeometry x="830" y="440" width="250" height="220" as="geometry" />
        </mxCell>
        <mxCell id="AQUX1lwgbm1XslL63LrI-83" value="Who We Serve:" style="text;html=1;points=[];align=left;verticalAlign=top;spacingTop=-4;fontSize=14;fontFamily=Verdana;fontStyle=5" parent="1" vertex="1">
          <mxGeometry x="830" y="405" width="110" height="20" as="geometry" />
        </mxCell>
        <mxCell id="AQUX1lwgbm1XslL63LrI-86" value="" style="verticalLabelPosition=bottom;shadow=0;dashed=0;align=center;html=1;verticalAlign=top;strokeWidth=1;shape=mxgraph.mockup.graphics.simpleIcon;strokeColor=#999999;rounded=0;labelBackgroundColor=none;fontFamily=Verdana;fontSize=14;fontColor=#000000;comic=1;" parent="1" vertex="1">
          <mxGeometry x="610" y="830" width="180" height="170" as="geometry" />
        </mxCell>
        <mxCell id="AQUX1lwgbm1XslL63LrI-87" value="" style="verticalLabelPosition=bottom;shadow=0;dashed=0;align=center;html=1;verticalAlign=top;strokeWidth=1;shape=mxgraph.mockup.graphics.simpleIcon;strokeColor=#999999;rounded=0;labelBackgroundColor=none;fontFamily=Verdana;fontSize=14;fontColor=#000000;comic=1;" parent="1" vertex="1">
          <mxGeometry x="890" y="830" width="190" height="170" as="geometry" />
        </mxCell>
        <mxCell id="AQUX1lwgbm1XslL63LrI-89" value="" style="whiteSpace=wrap;html=1;rounded=0;shadow=0;labelBackgroundColor=none;strokeWidth=1;fillColor=none;fontFamily=Verdana;fontSize=12;align=center;comic=1;" parent="1" vertex="1">
          <mxGeometry x="230" y="1480" width="200" height="110" as="geometry" />
        </mxCell>
        <mxCell id="AQUX1lwgbm1XslL63LrI-90" value="Vet Center location" style="text;html=1;points=[];align=center;verticalAlign=top;spacingTop=-4;fontSize=14;fontFamily=Verdana" parent="1" vertex="1">
          <mxGeometry x="245" y="1495" width="170" height="20" as="geometry" />
        </mxCell>
        <mxCell id="AQUX1lwgbm1XslL63LrI-91" value="Contact info" style="text;html=1;points=[];align=center;verticalAlign=top;spacingTop=-4;fontSize=14;fontFamily=Verdana" parent="1" vertex="1">
          <mxGeometry x="865" y="1440" width="170" height="20" as="geometry" />
        </mxCell>
        <mxCell id="AQUX1lwgbm1XslL63LrI-92" value="" style="verticalLabelPosition=bottom;shadow=0;dashed=0;align=center;html=1;verticalAlign=top;strokeWidth=1;shape=mxgraph.mockup.graphics.simpleIcon;strokeColor=#999999;rounded=0;labelBackgroundColor=none;fontFamily=Verdana;fontSize=14;fontColor=#000000;comic=1;" parent="1" vertex="1">
          <mxGeometry x="40" y="1440" width="180" height="170" as="geometry" />
        </mxCell>
        <mxCell id="AQUX1lwgbm1XslL63LrI-96" value="Why choose Framingham State?&amp;nbsp;" style="text;html=1;points=[];align=center;verticalAlign=top;spacingTop=-4;fontSize=14;fontFamily=Verdana;fontStyle=5" parent="1" vertex="1">
          <mxGeometry x="855" y="1060" width="200" height="20" as="geometry" />
        </mxCell>
        <mxCell id="AQUX1lwgbm1XslL63LrI-97" value="&lt;div style=&quot;text-align: justify&quot;&gt;&lt;span&gt;Lorem ipsum dolor sit amet, consectetur adipisicing elit, sed do eiusmod tempor incididunt ut labore et dolore magna aliqua. Ut enim ad minim veniam, quis nostrud exercitation ullamco laboris nisi ut aliquip ex ea commodo consequat. Duis aute irure dolor in reprehenderit in voluptate velit esse cillum dolore eu fugiat nulla pariatur. Excepteur sint occaecat cupidatat non proident, sunt in culpa qui officia deserunt mollit anim id est laborum.&lt;/span&gt;&lt;/div&gt;&lt;div style=&quot;text-align: justify&quot;&gt;&lt;br&gt;&lt;/div&gt;" style="whiteSpace=wrap;html=1;rounded=0;shadow=0;labelBackgroundColor=none;strokeWidth=1;fillColor=none;fontFamily=Verdana;fontSize=12;align=center;verticalAlign=top;spacing=10;comic=1;" parent="1" vertex="1">
          <mxGeometry x="830" y="1090" width="250" height="220" as="geometry" />
        </mxCell>
        <mxCell id="AQUX1lwgbm1XslL63LrI-101" value="&lt;b&gt;Logins&lt;/b&gt;" style="strokeWidth=1;shadow=0;dashed=0;align=center;html=1;shape=mxgraph.mockup.forms.comboBox;strokeColor=#999999;fillColor=#ddeeff;align=left;fillColor2=#aaddff;mainText=;fontColor=#666666;fontSize=17;spacingLeft=3;labelBackgroundColor=#FFFFCC;opacity=50;" parent="1" vertex="1">
          <mxGeometry x="35" y="35" width="150" height="30" as="geometry" />
        </mxCell>
        <mxCell id="AQUX1lwgbm1XslL63LrI-102" value="Frequently Asked Questions" style="strokeWidth=1;shadow=0;dashed=0;align=center;html=1;shape=mxgraph.mockup.buttons.button;strokeColor=#666666;fontColor=#000000;mainText=;buttonStyle=round;fontSize=17;fontStyle=1;fillColor=#FFFF99;whiteSpace=wrap;labelBackgroundColor=#FFFF99;opacity=50;labelBorderColor=#000000;" parent="1" vertex="1">
          <mxGeometry x="830" y="1360" width="260" height="20" as="geometry" />
        </mxCell>
        <mxCell id="AQUX1lwgbm1XslL63LrI-103" value="Incoming Students" style="strokeWidth=1;shadow=0;dashed=0;align=center;html=1;shape=mxgraph.mockup.buttons.button;strokeColor=#666666;fontColor=#000000;mainText=;buttonStyle=round;fontSize=17;fontStyle=1;fillColor=#FFFF99;whiteSpace=wrap;labelBackgroundColor=#FFFF99;opacity=50;labelBorderColor=#000000;" parent="1" vertex="1">
          <mxGeometry x="48" y="760" width="170" height="20" as="geometry" />
        </mxCell>
        <mxCell id="AQUX1lwgbm1XslL63LrI-104" value="Returning Students" style="strokeWidth=1;shadow=0;dashed=0;align=center;html=1;shape=mxgraph.mockup.buttons.button;strokeColor=#666666;fontColor=#000000;mainText=;buttonStyle=round;fontSize=17;fontStyle=1;fillColor=#FFFF99;whiteSpace=wrap;labelBackgroundColor=#FFFF99;opacity=50;labelBorderColor=#000000;" parent="1" vertex="1">
          <mxGeometry x="330" y="760" width="170" height="20" as="geometry" />
        </mxCell>
        <mxCell id="AQUX1lwgbm1XslL63LrI-105" value="Readmitted Students" style="strokeWidth=1;shadow=0;dashed=0;align=center;html=1;shape=mxgraph.mockup.buttons.button;strokeColor=#666666;fontColor=#000000;mainText=;buttonStyle=round;fontSize=17;fontStyle=1;fillColor=#FFFF99;whiteSpace=wrap;labelBackgroundColor=#FFFF99;opacity=50;labelBorderColor=#000000;" parent="1" vertex="1">
          <mxGeometry x="597" y="762" width="205" height="20" as="geometry" />
        </mxCell>
        <mxCell id="AQUX1lwgbm1XslL63LrI-106" value="Interested in Framingham" style="strokeWidth=1;shadow=0;dashed=0;align=center;html=1;shape=mxgraph.mockup.buttons.button;strokeColor=#666666;fontColor=#000000;mainText=;buttonStyle=round;fontSize=17;fontStyle=1;fillColor=#FFFF99;whiteSpace=wrap;labelBackgroundColor=#FFFF99;opacity=50;labelBorderColor=#000000;" parent="1" vertex="1">
          <mxGeometry x="875" y="762" width="220" height="30" as="geometry" />
        </mxCell>
        <UserObject label="CONTACT US" link="https://www.draw.io" id="AQUX1lwgbm1XslL63LrI-107">
          <mxCell style="text;html=1;strokeColor=none;fillColor=none;whiteSpace=wrap;align=center;verticalAlign=middle;fontColor=#0000EE;fontStyle=5;labelBackgroundColor=#FFFF99;opacity=50;" parent="1" vertex="1">
            <mxGeometry x="210" y="30" width="90" height="40" as="geometry" />
          </mxCell>
        </UserObject>
        <UserObject label="GIVE" link="https://www.draw.io" id="AQUX1lwgbm1XslL63LrI-108">
          <mxCell style="text;html=1;strokeColor=none;fillColor=none;whiteSpace=wrap;align=center;verticalAlign=middle;fontColor=#0000EE;fontStyle=5;labelBackgroundColor=#FFFF99;opacity=50;" parent="1" vertex="1">
            <mxGeometry x="310" y="30" width="60" height="40" as="geometry" />
          </mxCell>
        </UserObject>
        <mxCell id="AQUX1lwgbm1XslL63LrI-111" value="&lt;b&gt;Information for...&lt;/b&gt;" style="strokeWidth=1;shadow=0;dashed=0;align=center;html=1;shape=mxgraph.mockup.forms.comboBox;strokeColor=#999999;fillColor=#ddeeff;align=left;fillColor2=#aaddff;mainText=;fontColor=#666666;fontSize=17;spacingLeft=3;labelBackgroundColor=#FFFFCC;opacity=50;" parent="1" vertex="1">
          <mxGeometry x="600" y="35" width="190" height="30" as="geometry" />
        </mxCell>
        <mxCell id="AQUX1lwgbm1XslL63LrI-113" value="Student Life" style="text;html=1;points=[];align=left;verticalAlign=top;spacingTop=-4;fontSize=14;fontFamily=Verdana" parent="1" vertex="1">
          <mxGeometry x="990" y="100" width="60" height="20" as="geometry" />
        </mxCell>
      </root>
    </mxGraphModel>
  </diagram>
  <diagram id="0aHgAqBQsupe-Oj-PIHC" name="FAQ">
    <mxGraphModel dx="1038" dy="499" grid="1" gridSize="10" guides="1" tooltips="1" connect="1" arrows="1" fold="1" page="1" pageScale="1" pageWidth="850" pageHeight="1100" math="0" shadow="0">
      <root>
        <mxCell id="FhT7d0f4G9KwJ5EyYsCg-0" />
        <mxCell id="FhT7d0f4G9KwJ5EyYsCg-1" parent="FhT7d0f4G9KwJ5EyYsCg-0" />
        <mxCell id="FhT7d0f4G9KwJ5EyYsCg-2" value="Frequently Asked Questions&amp;nbsp;" style="text;strokeColor=none;fillColor=none;html=1;fontSize=24;fontStyle=5;verticalAlign=middle;align=center;labelBackgroundColor=none;opacity=50;" parent="FhT7d0f4G9KwJ5EyYsCg-1" vertex="1">
          <mxGeometry x="375" y="20" width="100" height="40" as="geometry" />
        </mxCell>
      </root>
    </mxGraphModel>
  </diagram>
  <diagram id="iIYzIbLqD99nfWlR-8uy" name="Incoming">
    <mxGraphModel dx="1038" dy="499" grid="1" gridSize="10" guides="1" tooltips="1" connect="1" arrows="1" fold="1" page="1" pageScale="1" pageWidth="850" pageHeight="1100" math="0" shadow="0">
      <root>
        <mxCell id="lo4oM0rHO5tftFcyaNv_-0" />
        <mxCell id="lo4oM0rHO5tftFcyaNv_-1" parent="lo4oM0rHO5tftFcyaNv_-0" />
        <mxCell id="lo4oM0rHO5tftFcyaNv_-2" value="Incoming Students&amp;nbsp;" style="text;strokeColor=none;fillColor=none;html=1;fontSize=24;fontStyle=5;verticalAlign=middle;align=center;labelBackgroundColor=none;opacity=50;" parent="lo4oM0rHO5tftFcyaNv_-1" vertex="1">
          <mxGeometry x="375" y="20" width="100" height="40" as="geometry" />
        </mxCell>
      </root>
    </mxGraphModel>
  </diagram>
  <diagram id="IWZRzPB7Srgr-H8kfdHU" name="Returning">
    <mxGraphModel dx="1038" dy="499" grid="1" gridSize="10" guides="1" tooltips="1" connect="1" arrows="1" fold="1" page="1" pageScale="1" pageWidth="850" pageHeight="1100" math="0" shadow="0">
      <root>
        <mxCell id="eSaFF0W0TnBiKJA9yBlp-0" />
        <mxCell id="eSaFF0W0TnBiKJA9yBlp-1" parent="eSaFF0W0TnBiKJA9yBlp-0" />
        <mxCell id="eSaFF0W0TnBiKJA9yBlp-2" value="Returning Students" style="text;strokeColor=none;fillColor=none;html=1;fontSize=24;fontStyle=5;verticalAlign=middle;align=center;labelBackgroundColor=none;opacity=50;" parent="eSaFF0W0TnBiKJA9yBlp-1" vertex="1">
          <mxGeometry x="375" y="20" width="100" height="40" as="geometry" />
        </mxCell>
      </root>
    </mxGraphModel>
  </diagram>
  <diagram id="1-K0viV9UJvYiuqXM6kq" name="Readmit">
    <mxGraphModel dx="1038" dy="499" grid="1" gridSize="10" guides="1" tooltips="1" connect="1" arrows="1" fold="1" page="1" pageScale="1" pageWidth="850" pageHeight="1100" math="0" shadow="0">
      <root>
        <mxCell id="JJ9tHCOyGeqkwPRAxf1G-0" />
        <mxCell id="JJ9tHCOyGeqkwPRAxf1G-1" parent="JJ9tHCOyGeqkwPRAxf1G-0" />
        <mxCell id="JJ9tHCOyGeqkwPRAxf1G-2" value="Readmitted Students&lt;br&gt;(after 1 or more semesters of absence)" style="text;strokeColor=none;fillColor=none;html=1;fontSize=24;fontStyle=1;verticalAlign=middle;align=center;labelBackgroundColor=none;opacity=50;" parent="JJ9tHCOyGeqkwPRAxf1G-1" vertex="1">
          <mxGeometry x="375" y="40" width="100" height="40" as="geometry" />
        </mxCell>
      </root>
    </mxGraphModel>
  </diagram>
  <diagram id="uE8HlPkJP2mZlgg5-Uyj" name="Interested">
    <mxGraphModel dx="1038" dy="499" grid="1" gridSize="10" guides="1" tooltips="1" connect="1" arrows="1" fold="1" page="1" pageScale="1" pageWidth="850" pageHeight="1100" math="0" shadow="0">
      <root>
        <mxCell id="3F4si03xI-t-Tc2XSzPS-0" />
        <mxCell id="3F4si03xI-t-Tc2XSzPS-1" parent="3F4si03xI-t-Tc2XSzPS-0" />
        <mxCell id="3F4si03xI-t-Tc2XSzPS-2" value="Interested Students" style="text;html=1;strokeColor=none;fillColor=none;align=center;verticalAlign=middle;whiteSpace=wrap;rounded=0;fontSize=24;fontStyle=5" vertex="1" parent="3F4si03xI-t-Tc2XSzPS-1">
          <mxGeometry x="265" y="20" width="320" height="20" as="geometry" />
        </mxCell>
      </root>
    </mxGraphModel>
  </diagram>
</mxfile>
